<svg xmlns="http://www.w3.org/2000/svg" width="220" height="64" viewBox="0 0 220 64" role="img" aria-label="Logo PERPUSYUK">
  <defs>
    <linearGradient id="g" x1="0" y1="0" x2="1" y2="1">
      <stop offset="0" stop-color="#38b6ff"/>
      <stop offset="0.55" stop-color="#f59d06"/>
      <stop offset="1" stop-color="#f88bad"/>
    </linearGradient>
    <filter id="s" x="-30%" y="-30%" width="160%" height="160%">
      <feDropShadow dx="0" dy="8" stdDeviation="8" flood-opacity="0.22"/>
    </filter>
  </defs>

  <g filter="url(#s)">
    <rect x="6" y="6" width="52" height="52" rx="18" fill="rgba(255,255,255,0.10)" stroke="rgba(255,255,255,0.25)"/>
    <path d="M20 22c0-2 1.6-3.6 3.6-3.6h12.4c4.6 0 8.3 3.7 8.3 8.3S40.6 35 36 35H30v7.5c0 1.5-1.2 2.7-2.7 2.7S24.6 44 24.6 42.5V22z" fill="url(#g)"/>
    <path d="M30 24.5h6c2.6 0 4.7 2.1 4.7 4.7S38.6 34 36 34h-6v-9.5z" fill="rgba(255,255,255,.65)"/>
  </g>

  <text x="70" y="30" font-family="system-ui,Segoe UI,Arial" font-size="22" font-weight="900" fill="#0f172a">PERPUSYUK</text>
  <text x="70" y="50" font-family="system-ui,Segoe UI,Arial" font-size="12" font-weight="800" fill="#475569">Perpustakaan Digital</text>
</svg>
